<?xml version="1.0" encoding="UTF-8" standalone="no"?>
<!-- Created with Inkscape (http://www.inkscape.org/) -->

<svg
   xmlns:dc="http://purl.org/dc/elements/1.1/"
   xmlns:cc="http://creativecommons.org/ns#"
   xmlns:rdf="http://www.w3.org/1999/02/22-rdf-syntax-ns#"
   xmlns:svg="http://www.w3.org/2000/svg"
   xmlns="http://www.w3.org/2000/svg"
   xmlns:sodipodi="http://sodipodi.sourceforge.net/DTD/sodipodi-0.dtd"
   xmlns:inkscape="http://www.inkscape.org/namespaces/inkscape"
   width="210mm"
   height="297mm"
   viewBox="0 0 210 297"
   version="1.1"
   id="svg5842"
   inkscape:version="0.92.5 (2060ec1f9f, 2020-04-08)"
   sodipodi:docname="aktarmalar.svg">
  <defs
     id="defs5836" />
  <sodipodi:namedview
     id="base"
     pagecolor="#ffffff"
     bordercolor="#666666"
     borderopacity="1.0"
     inkscape:pageopacity="0.0"
     inkscape:pageshadow="2"
     inkscape:zoom="1.4142136"
     inkscape:cx="255.47468"
     inkscape:cy="752.57914"
     inkscape:document-units="mm"
     inkscape:current-layer="layer1"
     showgrid="false"
     inkscape:window-width="1280"
     inkscape:window-height="995"
     inkscape:window-x="0"
     inkscape:window-y="0"
     inkscape:window-maximized="1"
     inkscape:snap-smooth-nodes="true"
     inkscape:snap-midpoints="true"
     inkscape:object-paths="true"
     inkscape:snap-intersection-paths="true"
     inkscape:snap-bbox="true"
     inkscape:bbox-nodes="true"
     inkscape:bbox-paths="true"
     inkscape:snap-bbox-edge-midpoints="true"
     inkscape:snap-bbox-midpoints="true"
     inkscape:snap-object-midpoints="true"
     inkscape:snap-center="true"
     inkscape:snap-text-baseline="true"
     inkscape:object-nodes="true" />
  <metadata
     id="metadata5839">
    <rdf:RDF>
      <cc:Work
         rdf:about="">
        <dc:format>image/svg+xml</dc:format>
        <dc:type
           rdf:resource="http://purl.org/dc/dcmitype/StillImage" />
        <dc:title />
        <dc:creator>
          <cc:Agent>
            <dc:title>Ömer Faruk Birgül</dc:title>
          </cc:Agent>
        </dc:creator>
        <dc:date>Aralık 2019</dc:date>
        <dc:language>Türkçe</dc:language>
        <cc:license
           rdf:resource="http://creativecommons.org/licenses/by-sa/4.0/" />
      </cc:Work>
      <cc:License
         rdf:about="http://creativecommons.org/licenses/by-sa/4.0/">
        <cc:permits
           rdf:resource="http://creativecommons.org/ns#Reproduction" />
        <cc:permits
           rdf:resource="http://creativecommons.org/ns#Distribution" />
        <cc:requires
           rdf:resource="http://creativecommons.org/ns#Notice" />
        <cc:requires
           rdf:resource="http://creativecommons.org/ns#Attribution" />
        <cc:permits
           rdf:resource="http://creativecommons.org/ns#DerivativeWorks" />
        <cc:requires
           rdf:resource="http://creativecommons.org/ns#ShareAlike" />
      </cc:License>
    </rdf:RDF>
  </metadata>
  <g
     inkscape:label="Layer 1"
     inkscape:groupmode="layer"
     id="layer1">
    <path
       style="fill:#ffffff;fill-opacity:0;fill-rule:nonzero;stroke:#5db3d8;stroke-width:6.7979846px;stroke-linecap:butt;stroke-linejoin:miter;stroke-miterlimit:4;stroke-dasharray:none;stroke-opacity:1"
       d="M 107.15625 356.96289 C 84.123053 356.96289 65.488281 375.59729 65.488281 398.63086 C 65.488281 421.58393 84.123053 440.21875 107.15625 440.21875 C 115.44004 440.21875 123.15477 437.78271 129.64062 433.60156 C 136.13808 437.78241 143.87135 440.21875 152.18359 440.21875 C 175.13704 440.21875 193.77148 421.58393 193.77148 398.63086 C 193.77148 375.5973 175.13704 356.96289 152.18359 356.96289 C 143.87155 356.96289 136.13798 359.39948 129.64062 363.58398 C 123.15487 359.39918 115.43983 356.96289 107.15625 356.96289 z "
       transform="scale(0.26458333)"
       id="path2499-9" />
    <path
       style="fill:none;fill-opacity:1;fill-rule:nonzero;stroke:#5db3d8;stroke-width:6.7979846px;stroke-linecap:butt;stroke-linejoin:miter;stroke-miterlimit:4;stroke-dasharray:none;stroke-opacity:1"
       d="M 107.15625 470.2207 C 84.123087 470.2207 65.488281 488.85532 65.488281 511.88867 C 65.488281 534.84178 84.123087 553.47656 107.15625 553.47656 C 115.45425 553.47656 123.18697 551.04214 129.67969 546.84766 L 137.18945 546.84766 L 146.01562 546.84766 L 153.52539 546.84766 C 160.01811 551.04214 167.75083 553.47656 176.04883 553.47656 C 199.08199 553.47656 217.7168 534.84178 217.7168 511.88867 C 217.7168 488.85532 199.08199 470.2207 176.04883 470.2207 C 167.75075 470.2207 160.01815 472.65709 153.52539 476.85547 L 146.01562 476.85547 L 145.35742 476.85547 L 137.18945 476.85547 L 129.67969 476.85547 C 123.18693 472.65709 115.45432 470.2207 107.15625 470.2207 z "
       transform="scale(0.26458333)"
       id="path2499-8" />
    <g
       id="g7111">
      <path
         inkscape:connector-curvature="0"
         style="fill:#ffffff;fill-opacity:1;fill-rule:nonzero;stroke:#5db3d8;stroke-width:1.79863346px;stroke-linecap:butt;stroke-linejoin:miter;stroke-miterlimit:4;stroke-dasharray:none;stroke-opacity:1"
         d="m 39.077282,165.1131 c 0,6.07301 -4.93037,11.00339 -11.003399,11.00339 -6.094191,0 -11.024565,-4.93038 -11.024565,-11.00339 0,-6.09424 4.930374,-11.02462 11.024565,-11.02462 6.073029,0 11.003399,4.93038 11.003399,11.02462 z"
         id="path2499-8-4" />
      <path
         inkscape:connector-curvature="0"
         style="fill:#ffffff;fill-opacity:1;fill-rule:nonzero;stroke:#5db3d8;stroke-width:1.79863346px;stroke-linecap:butt;stroke-linejoin:miter;stroke-miterlimit:4;stroke-dasharray:none;stroke-opacity:1"
         d="m 80.904282,165.1131 c 0,6.07301 -4.93037,11.00339 -11.003399,11.00339 -6.094192,0 -11.024566,-4.93038 -11.024566,-11.00339 0,-6.09424 4.930374,-11.02462 11.024566,-11.02462 6.073029,0 11.003399,4.93038 11.003399,11.02462 z"
         id="path2499-8-9" />
      <rect
         y="164.68163"
         x="39.455738"
         height="0.84172237"
         width="1.0417224"
         id="rect6970"
         style="opacity:1;fill:#ffffff;fill-opacity:0;stroke:#5db3d8;stroke-width:0.95827764;stroke-miterlimit:4;stroke-dasharray:none;stroke-dashoffset:0;stroke-opacity:1" />
      <rect
         y="164.68163"
         x="57.456139"
         height="0.84172237"
         width="1.0417224"
         id="rect6970-3"
         style="opacity:1;fill:#ffffff;fill-opacity:0;stroke:#5db3d8;stroke-width:0.95827764;stroke-miterlimit:4;stroke-dasharray:none;stroke-dashoffset:0;stroke-opacity:1" />
      <rect
         y="164.68163"
         x="42.456139"
         height="0.84172243"
         width="1.0417224"
         id="rect6970-6-3-5"
         style="opacity:1;fill:#ffffff;fill-opacity:0;stroke:#5db3d8;stroke-width:0.9582777;stroke-miterlimit:4;stroke-dasharray:none;stroke-dashoffset:0;stroke-opacity:1" />
      <rect
         y="164.68163"
         x="45.456139"
         height="0.84172243"
         width="1.0417224"
         id="rect6970-6-3-2"
         style="opacity:1;fill:#ffffff;fill-opacity:0;stroke:#5db3d8;stroke-width:0.9582777;stroke-miterlimit:4;stroke-dasharray:none;stroke-dashoffset:0;stroke-opacity:1" />
      <rect
         y="164.68163"
         x="48.456139"
         height="0.84172243"
         width="1.0417224"
         id="rect6970-6-3-8"
         style="opacity:1;fill:#ffffff;fill-opacity:0;stroke:#5db3d8;stroke-width:0.9582777;stroke-miterlimit:4;stroke-dasharray:none;stroke-dashoffset:0;stroke-opacity:1" />
      <rect
         y="164.68163"
         x="51.456139"
         height="0.84172243"
         width="1.0417224"
         id="rect6970-6-3-9"
         style="opacity:1;fill:#ffffff;fill-opacity:0;stroke:#5db3d8;stroke-width:0.9582777;stroke-miterlimit:4;stroke-dasharray:none;stroke-dashoffset:0;stroke-opacity:1" />
      <rect
         y="164.68163"
         x="54.456139"
         height="0.84172243"
         width="1.0417224"
         id="rect6970-6-3-23"
         style="opacity:1;fill:#ffffff;fill-opacity:0;stroke:#5db3d8;stroke-width:0.9582777;stroke-miterlimit:4;stroke-dasharray:none;stroke-dashoffset:0;stroke-opacity:1" />
    </g>
    <path
       inkscape:connector-curvature="0"
       style="fill:#ffffff;fill-opacity:0;fill-rule:nonzero;stroke:#5db3d8;stroke-width:1.79863346px;stroke-linecap:butt;stroke-linejoin:miter;stroke-miterlimit:4;stroke-dasharray:none;stroke-opacity:1"
       d="m 83.827851,53.34198 c -6.094201,0 -11.024651,4.930351 -11.024651,11.02465 0,6.073 4.93045,11.003463 11.024651,11.003463 2.191753,0 4.232942,-0.644536 5.948989,-1.750799 1.71912,1.106184 3.765214,1.750799 5.964494,1.750799 6.073106,0 11.003466,-4.930463 11.003466,-11.003463 0,-6.094296 -4.93036,-11.02465 -11.003466,-11.02465 -2.199227,0 -4.245401,0.644681 -5.964494,1.75183 -1.716021,-1.107229 -3.757292,-1.75183 -5.948989,-1.75183 z"
       id="path2499-9-3" />
    <path
       style="fill:#ffffff;fill-opacity:0;stroke:#5db3d8;stroke-width:6.79937029;stroke-miterlimit:4;stroke-dasharray:none;stroke-opacity:1"
       d="M 311.52539 319.94727 A 42.052175 42.052175 0 0 0 269.47461 362 A 42.052175 42.052175 0 0 0 290.50391 398.37695 A 42.052175 42.052175 0 0 0 290.50195 398.41797 A 42.052175 42.052175 0 0 0 332.55273 440.4707 A 42.052175 42.052175 0 0 0 374.60547 398.41797 A 42.052175 42.052175 0 0 0 374.60352 398.35742 A 42.052175 42.052175 0 0 0 395.63086 362 A 42.052175 42.052175 0 0 0 353.57812 319.94727 A 42.052175 42.052175 0 0 0 332.56445 325.63281 A 42.052175 42.052175 0 0 0 311.52539 319.94727 z "
       transform="scale(0.26458333)"
       id="path848" />
  </g>
</svg>
